<?xml version="1.0" encoding="UTF-8"?>
<svg width="415px" height="415px" xmlns="http://www.w3.org/2000/svg" id="Layer_2" viewBox="0 0 586.19 586.26">
  <defs>
    <style>.cls-1,.cls-2{fill:#fff;}.cls-3{fill:#0075c9;}.cls-2{opacity:.5;}.cls-4{fill:#6d6e71;}.cls-5{fill:#d9d9d6;}.cls-6{fill:#06375c;}.cls-7{fill:#00abe6;}.cls-8{fill:#808285;}.cls-9{fill:none;}.cls-10{fill:#065288;}.cls-11{fill:#006cb7;}.cls-12{fill:#99c4e2;}.cls-13{fill:#007ac2;}</style>
  </defs>
  <g id="Base_layer">
    <g id="Main_blue_shape">
      <path class="cls-11" d="m293.1,582.76c-77.36,0-150.08-30.13-204.78-84.83C33.62,443.23,3.5,370.49,3.5,293.13V3.5h289.6c77.35,0,150.07,30.13,204.77,84.83,54.7,54.7,84.82,127.44,84.82,204.8s-30.12,150.1-84.82,204.8c-54.7,54.7-127.42,84.83-204.77,84.83Z"></path>
      <path class="cls-5" d="m293.1,7c158,0,286.09,128.1,286.09,286.13s-128.09,286.13-286.09,286.13S7,451.16,7,293.13V7h286.1m0-7H0v293.13c0,39.57,7.75,77.96,23.04,114.1,14.76,34.91,35.9,66.25,62.81,93.17,26.92,26.92,58.26,48.05,93.16,62.82,36.14,15.29,74.53,23.04,114.09,23.04s77.95-7.75,114.09-23.04c34.9-14.76,66.25-35.9,93.16-62.82,26.92-26.92,48.05-58.27,62.81-93.17,15.29-36.14,23.04-74.53,23.04-114.1s-7.75-77.96-23.04-114.1c-14.76-34.91-35.89-66.25-62.81-93.17-26.91-26.92-58.26-48.05-93.16-62.82C371.05,7.75,332.67,0,293.1,0h0Z"></path>
      <path class="cls-1" d="m293.1,7c158,0,286.09,128.1,286.09,286.13s-128.09,286.13-286.09,286.13S7,451.16,7,293.13V7h286.1m0-6H1v292.13c0,39.44,7.72,77.69,22.96,113.71,14.71,34.79,35.77,66.03,62.6,92.85,26.82,26.83,58.06,47.89,92.85,62.6,36.02,15.23,74.27,22.96,113.7,22.96s77.68-7.72,113.7-22.96c34.78-14.71,66.02-35.78,92.84-62.6,26.82-26.83,47.88-58.07,62.6-92.85,15.23-36.02,22.96-74.28,22.96-113.71s-7.72-77.69-22.96-113.71c-14.71-34.79-35.77-66.03-62.6-92.85-26.82-26.83-58.06-47.89-92.84-62.6C370.78,8.72,332.53,1,293.1,1h0Z"></path>
    </g>
    <g id="White_circle">
      <path class="cls-1" d="m547.6,293.13c0,140.58-113.94,254.53-254.5,254.53S38.6,433.71,38.6,293.13,152.54,38.6,293.1,38.6s254.5,113.95,254.5,254.53Z"></path>
    </g>
  </g>
  <g id="ROM_Architect_INSTRUCTOR">
    <g id="INSTRUCTOR_semi-circle">
      <path class="cls-10" d="m40.2,321.66c14.18,127.14,121.99,226,252.9,226s238.72-98.86,252.9-226H40.2Z"></path>
    </g>
  </g>
  <g id="Developer">
    <g id="Dark_blue_Developer_semi-circle">
      <path class="cls-11" d="m40.2,321.66c14.18,127.14,121.99,226,252.9,226s238.72-98.86,252.9-226H40.2Z"></path>
    </g>
    <g>
      <path class="cls-1" d="m184.38,396.6h12.62c10.03,0,16.99,6.38,16.99,16.03s-6.96,15.99-16.99,15.99h-12.62v-32.02Zm12.62,26.02c6.34,0,10.03-4.56,10.03-9.98s-3.46-10.03-10.03-10.03h-5.81v20.02h5.81Z"></path>
      <path class="cls-1" d="m229.21,404.86c6.91,0,11.62,5.18,11.62,12.77v1.34h-17.23c.38,2.93,2.74,5.38,6.67,5.38,2.16,0,4.7-.86,6.19-2.3l2.69,3.94c-2.3,2.11-5.95,3.22-9.55,3.22-7.06,0-12.38-4.75-12.38-12.19,0-6.72,4.94-12.14,12-12.14Zm-5.71,9.98h11.43c-.14-2.21-1.68-5.14-5.71-5.14-3.79,0-5.42,2.83-5.71,5.14Z"></path>
      <path class="cls-1" d="m241.93,405.43h6.53l6.05,16.13,6.05-16.13h6.58l-9.31,23.19h-6.58l-9.31-23.19Z"></path>
      <path class="cls-1" d="m280.38,404.86c6.91,0,11.62,5.18,11.62,12.77v1.34h-17.23c.38,2.93,2.74,5.38,6.67,5.38,2.16,0,4.7-.86,6.19-2.3l2.69,3.94c-2.3,2.11-5.95,3.22-9.55,3.22-7.06,0-12.38-4.75-12.38-12.19,0-6.72,4.94-12.14,12-12.14Zm-5.71,9.98h11.43c-.14-2.21-1.68-5.14-5.71-5.14-3.79,0-5.42,2.83-5.71,5.14Z"></path>
      <path class="cls-1" d="m296.41,396.6h6.1v32.02h-6.1v-32.02Z"></path>
      <path class="cls-1" d="m307.06,417c0-6.58,4.61-12.14,12.24-12.14s12.29,5.57,12.29,12.14-4.61,12.19-12.29,12.19-12.24-5.57-12.24-12.19Zm18.19,0c0-3.6-2.16-6.72-5.95-6.72s-5.9,3.12-5.9,6.72,2.11,6.77,5.9,6.77,5.95-3.12,5.95-6.77Z"></path>
      <path class="cls-1" d="m336.1,437.45v-32.02h6.1v2.93c1.78-2.26,4.32-3.5,7.15-3.5,5.95,0,10.27,4.42,10.27,12.14s-4.32,12.19-10.27,12.19c-2.74,0-5.28-1.15-7.15-3.55v11.81h-6.1Zm11.33-27.17c-1.97,0-4.22,1.15-5.23,2.64v8.21c1.01,1.44,3.26,2.64,5.23,2.64,3.5,0,5.86-2.74,5.86-6.77s-2.35-6.72-5.86-6.72Z"></path>
      <path class="cls-1" d="m374.7,404.86c6.91,0,11.62,5.18,11.62,12.77v1.34h-17.23c.38,2.93,2.74,5.38,6.67,5.38,2.16,0,4.7-.86,6.19-2.3l2.69,3.94c-2.3,2.11-5.95,3.22-9.55,3.22-7.06,0-12.38-4.75-12.38-12.19,0-6.72,4.94-12.14,12-12.14Zm-5.71,9.98h11.43c-.14-2.21-1.68-5.14-5.71-5.14-3.79,0-5.42,2.83-5.71,5.14Z"></path>
      <path class="cls-1" d="m390.73,405.43h6.1v3.17c1.63-2.06,4.51-3.7,7.39-3.7v5.95c-.43-.1-1.01-.19-1.68-.19-2.02,0-4.7,1.15-5.71,2.64v15.31h-6.1v-23.19Z"></path>
    </g>
  </g>
  <g id="Top_layer">
    <g id="Prism">
      <polygon class="cls-7" points="66.55 31.79 66.55 31.79 66.55 31.79 29.58 74.48 66.55 95.82 66.55 95.81 66.55 95.82 103.52 74.48 66.55 31.79"></polygon>
      <polygon class="cls-2" points="29.58 74.48 66.55 31.79 66.55 95.82 66.55 95.81 66.55 95.82 29.58 74.48"></polygon>
    </g>
    <g id="SSC-blueprism-2col-logo-rgb">
      <path class="cls-3" d="m152.11,257.37c0,2.44,1.99,4.18,4.76,4.18,1.95,0,3.74-.94,5.36-2.48l-.04-.04-6.39-6.38c-2.58,1.14-3.7,2.86-3.7,4.71"></path>
      <path class="cls-3" d="m162.07,243.55c0-1.99-1.34-3.25-3.25-3.25-2.03,0-3.37,1.42-3.37,3.45,0,1.46.57,2.52,2.15,4.27,2.92-1.06,4.47-2.36,4.47-4.47"></path>
      <path class="cls-13" d="m155.9,252.61h0s0,0,0,0h0Z"></path>
      <path class="cls-3" d="m169.9,266.74l-4.79-4.79-.04.04c-2.44,2.28-5.28,3.7-8.74,3.7-5.28,0-9.26-3.17-9.26-8.17,0-3.7,2.15-6.34,6.05-8-1.63-2.11-2.36-3.86-2.36-5.98,0-3.86,3.09-7.19,8.17-7.19,4.51,0,7.56,3,7.56,6.91s-2.48,6.01-6.26,7.43l1.88,1.91h7.78v14.13Zm39.15-6.88c-2.4,2.26-5.82,3.68-9.45,3.68-7.63,0-13.3-5.37-13.3-13.73s5.31-13.85,13.3-13.85c3,0,6.04,1.03,8.35,2.8h10.97c-3.8-6.75-10.96-11.15-19.32-11.15-10.59,0-19.4,6.97-21.61,17.16v-42.36h-36.74v56.17c-.22-8.04-7.23-10.57-13.35-12.73-5.43-1.83-10.19-3.11-10.19-6.28,0-2.93,2.68-4.58,6.59-4.58,2.93,0,5.64,1.28,7.2,3.77h9.15c-1.98-6.48-8.16-11.15-16.04-11.15-9.03,0-15.62,5.67-15.62,12.32,0,7.44,6.22,10,11.35,11.83,6.04,2.2,12.08,3.54,12.08,7.63,0,2.75-2.62,4.94-6.89,4.94-3.89,0-6.91-1.88-8.56-4.47h-8.15c.02-.3.05-.59.05-.9,0-8.36-7.14-10.92-13.36-13.12-5.43-1.83-10.19-3.11-10.19-6.28,0-2.93,2.68-4.58,6.59-4.58,2.93,0,5.64,1.28,7.2,3.77h9.15c-1.98-6.48-8.16-11.15-16.04-11.15-9.03,0-15.62,5.67-15.62,12.32,0,7.44,6.22,10,11.35,11.83,6.04,2.2,12.08,3.54,12.08,7.63,0,2.75-2.62,4.94-6.89,4.94-3.89,0-6.91-1.88-8.56-4.47h-9.29c2.46,7.38,8.53,12.16,17.24,12.16s14.5-4.07,15.99-10.1c2.85,6.19,8.54,10.1,16.41,10.1,9.68,0,16.23-5.34,16.34-12.86v21.24h36.74v-25.53c2.21,10.19,11.02,17.16,21.61,17.16,8.83,0,16.29-4.79,19.9-12.16h-10.45Z"></path>
      <polygon class="cls-8" points="240.69 272.04 241.08 272.04 241.47 272.04 241.47 249.76 241.47 227.47 241.08 227.47 240.69 227.47 240.69 249.76 240.69 272.04"></polygon>
      <path class="cls-4" d="m376.85,239.4h2.83l.98,4.18h.31c3.01-3.2,6.21-4.8,9.65-4.8,7.01,0,11.93,6.09,11.93,16.66s-4.92,16.66-11.93,16.66c-3.44,0-6.64-1.54-9.65-4.73h-.31l-.07,15.86h-3.81l.07-43.83Zm3.81,23.54c3.2,4.06,6.09,6.09,9.65,6.09,5.29,0,8.42-4.73,8.42-13.53s-3.14-13.53-8.42-13.53c-3.57,0-6.45,1.97-9.65,6.03v14.94Z"></path>
      <path class="cls-4" d="m409.85,239.4h3.75v5.59h.37c2.21-4.24,5.04-6.15,9.22-6.15h.18v3.69h-.49c-4.49,0-7.44,2.58-9.28,8.67v20.35h-3.75v-32.15Z"></path>
      <polygon class="cls-4" points="429.03 239.4 430.9 239.4 432.78 239.4 432.78 255.48 432.78 271.55 430.9 271.55 429.03 271.55 429.03 255.48 429.03 239.4"></polygon>
      <path class="cls-4" d="m452.13,269.09c4,0,6.64-2.52,6.64-5.9,0-3.87-3.01-4.73-8.3-6.7-6.52-2.4-9.9-4.24-9.9-9.16s4-8.54,10.39-8.54c4.18,0,7.87,2.03,10.7,5.9l-2.71,1.97c-2.46-3.26-5.1-4.8-8.67-4.8s-5.78,2.15-5.78,5.29c0,3.44,3.14,4.24,8.48,6.27,6.39,2.4,9.65,4.37,9.65,9.47,0,5.35-4.3,9.22-10.94,9.22-5.04,0-8.92-2.03-12.11-6.33l2.83-2.27c2.77,3.69,5.96,5.59,9.71,5.59"></path>
      <path class="cls-4" d="m469.55,239.4h3.5v4.98h.25c3.38-3.69,6.95-5.53,10.33-5.53,3.63,0,6.21,1.85,7.68,5.53h.43c3.51-3.69,6.89-5.53,10.33-5.53,5.41,0,8.12,3.44,8.12,10.33v22.38h-3.63v-21.02c0-5.65-.98-8.36-5.53-8.36-2.95,0-6.15,1.97-9.28,5.96v23.42h-3.69v-21.02c0-5.65-.99-8.36-5.53-8.36-2.95,0-6.08,1.97-9.28,5.96v23.42h-3.69v-32.15Z"></path>
      <path class="cls-4" d="m270.67,226.98v15.86c1.97-2.64,4.67-4,7.87-4,7.75,0,12.91,6.15,12.91,16.42s-4.86,16.84-12.85,16.84c-3.57,0-6.39-1.35-8.61-4.24l-.92,3.69h-4.55c.31-3.2.37-6.21.37-9.04v-35.53h5.78Zm7.01,40.27c4.92,0,7.81-4,7.81-11.56s-2.83-11.99-7.99-11.99c-2.52,0-4.73,1.29-6.82,3.87v15.68c2.09,2.64,4.36,4,7.01,4"></path>
      <polygon class="cls-4" points="304.02 226.98 304.02 249.27 304.02 271.55 301.13 271.55 298.24 271.55 298.24 249.27 298.24 226.98 301.13 226.98 304.02 226.98"></polygon>
      <path class="cls-4" d="m318.96,239.34v21.64c0,4.24,1.35,6.21,4.73,6.21,2.52,0,5.23-1.42,7.99-4.24v-23.61h5.84v32.21h-5.41v-4.36c-3.57,3.2-6.7,4.86-10.33,4.86-5.47,0-8.67-3.38-8.67-9.47v-23.24h5.84Z"></path>
      <path class="cls-4" d="m349.97,256.49v.61c0,6.52,2.95,10.14,8.05,10.14,3.38,0,5.96-1.66,7.81-5.04l4.3,2.65c-2.64,4.79-6.88,7.31-12.42,7.31-8.79,0-13.65-5.72-13.65-16.35s4.92-17.03,13.28-17.03c7.68,0,12.6,5.84,12.6,16.05,0,.55-.06,1.11-.06,1.66h-19.92Zm7.19-13.03c-4.24,0-6.89,3.01-7.13,8.54h13.96c-.12-5.47-2.77-8.54-6.82-8.54"></path>
      <path class="cls-4" d="m506.05,227.02c2.27,0,4.12,1.85,4.12,4.12s-1.85,4.12-4.12,4.12-4.12-1.85-4.12-4.12,1.85-4.12,4.12-4.12m.01,7.63c1.9,0,3.33-1.53,3.33-3.51s-1.43-3.51-3.33-3.51-3.35,1.53-3.35,3.51,1.43,3.51,3.35,3.51m-1.59-5.93h1.85c1.11,0,1.66.44,1.66,1.36,0,.78-.49,1.34-1.25,1.34l1.37,2.13h-.83l-1.35-2.13h-.66v2.13h-.79v-4.83Zm.79,2.08h.94c.61,0,.99-.13.99-.75,0-.55-.49-.71-.99-.71h-.94v1.46Z"></path>
      <rect class="cls-9" x="73.05" y="200.18" width="440.1" height="86.91"></rect>
    </g>
    <g id="CERTIFIED">
      <path class="cls-6" d="m176.67,150.1c0-8.61,6.51-14.49,14.7-14.49,6.39,0,9.96,3.36,11.93,6.85l-5.12,2.52c-1.18-2.27-3.7-4.07-6.81-4.07-4.87,0-8.57,3.91-8.57,9.2s3.7,9.2,8.57,9.2c3.11,0,5.63-1.76,6.81-4.07l5.12,2.48c-2.02,3.49-5.54,6.89-11.93,6.89-8.19,0-14.7-5.88-14.7-14.49Z"></path>
      <path class="cls-6" d="m211.07,136.07h19.83v5.12h-13.86v6.09h13.57v5.12h-13.57v6.51h13.86v5.17h-19.83v-28.02Z"></path>
      <path class="cls-6" d="m250.09,154.05h-4.37v10.04h-5.97v-28.02h13.11c5.84,0,9.41,3.82,9.41,9.03s-3.11,7.6-6.13,8.32l6.3,10.67h-6.85l-5.5-10.04Zm1.89-12.85h-6.26v7.73h6.26c2.39,0,4.2-1.51,4.2-3.87s-1.81-3.86-4.2-3.86Z"></path>
      <path class="cls-6" d="m277.01,141.32h-8.19v-5.25h22.35v5.25h-8.15v22.77h-6.01v-22.77Z"></path>
      <path class="cls-6" d="m299.19,136.07h5.97v28.02h-5.97v-28.02Z"></path>
      <path class="cls-6" d="m314.89,136.07h19.83v5.12h-13.86v6.09h13.57v5.12h-13.57v11.68h-5.96v-28.02Z"></path>
      <path class="cls-6" d="m343.07,136.07h5.97v28.02h-5.97v-28.02Z"></path>
      <path class="cls-6" d="m358.78,136.07h19.83v5.12h-13.86v6.09h13.57v5.12h-13.57v6.51h13.86v5.17h-19.83v-28.02Z"></path>
      <path class="cls-6" d="m387.47,136.07h11.05c8.78,0,14.87,5.59,14.87,14.03s-6.09,13.99-14.87,13.99h-11.05v-28.02Zm11.05,22.77c5.54,0,8.78-3.99,8.78-8.74s-3.02-8.78-8.78-8.78h-5.08v17.52h5.08Z"></path>
    </g>
    <g id="Blue_inner_circle">
      <path class="cls-12" d="m293.1,44.6c33.55,0,66.09,6.57,96.72,19.53,29.59,12.52,56.17,30.44,78.99,53.26,22.82,22.83,40.74,49.41,53.26,79,12.96,30.64,19.53,63.18,19.53,96.74s-6.57,66.1-19.53,96.74c-12.52,29.59-30.43,56.17-53.26,79-22.82,22.83-49.4,40.75-78.99,53.26-30.63,12.96-63.17,19.53-96.72,19.53s-66.09-6.57-96.73-19.53c-29.59-12.52-56.17-30.44-78.99-53.26-22.82-22.83-40.74-49.4-53.26-79-12.96-30.64-19.53-63.18-19.53-96.74s6.57-66.1,19.53-96.74c12.52-29.59,30.43-56.17,53.26-79,22.82-22.83,49.4-40.75,78.99-53.26,30.63-12.96,63.18-19.53,96.73-19.53m0-6c-140.56,0-254.5,113.95-254.5,254.53s113.95,254.53,254.5,254.53,254.5-113.95,254.5-254.53S433.66,38.6,293.1,38.6h0Z"></path>
    </g>
  </g>
</svg>
